<svg width="24" height="24" viewBox="0 0 24 24" fill="none" xmlns="http://www.w3.org/2000/svg">
<path d="M22.5358 6.34184C22.4106 5.88881 22.1655 5.47575 21.8249 5.14401C21.4843 4.81226 21.0603 4.57347 20.5952 4.45153C18.8824 4 12 4 12 4C12 4 5.11755 4 3.4048 4.45153C2.93971 4.57347 2.51567 4.81226 2.1751 5.14401C1.83453 5.47575 1.58938 5.88881 1.4642 6.34184C1.14379 8.04324 0.988589 9.77025 1.00065 11.5C0.988589 13.2298 1.14379 14.9568 1.4642 16.6582C1.58938 17.1112 1.83453 17.5243 2.1751 17.856C2.51567 18.1877 2.93971 18.4265 3.4048 18.5485C5.11755 19 12 19 12 19C12 19 18.8824 19 20.5952 18.5485C21.0603 18.4265 21.4843 18.1877 21.8249 17.856C22.1655 17.5243 22.4106 17.1112 22.5358 16.6582C22.8562 14.9568 23.0114 13.2298 22.9993 11.5C23.0114 9.77025 22.8562 8.04324 22.5358 6.34184ZM9.80013 14.7143V8.28571L15.5119 11.5L9.80013 14.7143Z" fill="#290079"/>
</svg>
